<?xml version="1.0" encoding="UTF-8" standalone="no"?>
<!DOCTYPE svg PUBLIC "-//W3C//DTD SVG 1.1//EN" "http://www.w3.org/Graphics/SVG/1.1/DTD/svg11.dtd">
<svg width="100%" height="100%" viewBox="0 0 880 582" version="1.1" xmlns="http://www.w3.org/2000/svg" xmlns:xlink="http://www.w3.org/1999/xlink" xml:space="preserve" xmlns:serif="http://www.serif.com/" style="fill-rule:evenodd;clip-rule:evenodd;stroke-linejoin:round;stroke-miterlimit:2;">
    <g transform="matrix(1,0,0,1,-160.25,-159.325)">
        <path d="M803.25,740.675C778.933,736.868 755.552,733.63 733.107,730.961L741.75,713.675C738.75,712.675 725.75,722.675 725.75,722.675L736.75,672.675C721.75,674.675 714.75,725.675 714.75,725.675L697.75,708.675L706.118,727.922C637.437,720.706 578.172,718.454 528.353,718.97L535.75,704.175C532.75,703.175 519.75,713.175 519.75,713.175L530.75,663.175C515.75,665.175 508.75,716.175 508.75,716.175L491.75,699.175L500.613,719.561C466.488,720.553 432.435,723.295 398.591,727.777C405.972,704.781 431.75,682.675 431.75,682.675C411.929,688.842 401.618,698.888 396.281,708.2C395.201,660.957 402.469,613.892 417.75,569.175C433.031,524.459 377.75,659.175 383.75,719.175L384.511,729.833C349.712,735.262 332.25,740.675 332.25,740.675L803.25,740.675Z" style="fill:rgb(21,59,0);fill-rule:nonzero;"/>
    </g>
    <g transform="matrix(1,0,0,1,-160.25,-159.325)">
        <path d="M894.922,616.811C888.339,616.811 882.922,611.394 882.922,604.811C882.922,598.228 888.339,592.811 894.922,592.811C901.505,592.811 906.922,598.228 906.922,604.811C906.915,611.391 901.503,616.803 894.922,616.811ZM894.922,594.811C889.437,594.811 884.922,599.325 884.922,604.811C884.922,610.297 889.437,614.811 894.922,614.811C900.408,614.811 904.922,610.297 904.922,604.811C904.916,599.327 900.406,594.817 894.922,594.811Z" style="fill:rgb(63,61,86);fill-rule:nonzero;"/>
    </g>
    <g transform="matrix(1,0,0,1,-160.25,-159.325)">
        <path d="M990.75,739.101L971.009,739.101L971.009,719.36L990.75,719.36L990.75,739.101ZM972.527,737.582L989.231,737.582L989.231,720.878L972.527,720.878L972.527,737.582Z" style="fill:rgb(63,61,86);fill-rule:nonzero;"/>
    </g>
    <g transform="matrix(1,0,0,1,-160.25,-159.325)">
        <path d="M322.394,740.181L308.929,725.745L323.365,712.28L336.83,726.716L322.394,740.181ZM311.075,725.819L322.469,738.035L334.684,726.641L323.29,714.426L311.075,725.819Z" style="fill:rgb(63,61,86);fill-rule:nonzero;"/>
    </g>
    <rect x="21.672" y="578.662" width="857.828" height="2" style="fill:rgb(63,61,86);"/>
    <g transform="matrix(1,0,0,1,-160.25,-159.325)">
        <path d="M713.725,293.085L713.725,358.765C713.722,360.02 712.69,361.051 711.435,361.055L709.805,361.055L709.805,703.205C709.804,722.789 693.689,738.904 674.105,738.905L460.315,738.905C440.736,738.903 424.625,722.791 424.625,703.211C424.625,703.209 424.625,703.207 424.625,703.205L424.625,373.055L423.445,373.055C422.56,373.056 421.829,372.33 421.825,371.445L421.825,334.064C421.825,333.176 422.556,332.445 423.445,332.445L424.625,332.445L424.625,318.365L423.435,318.365C422.505,318.361 421.743,317.594 421.745,316.665L421.745,279.795C421.747,278.869 422.509,278.107 423.435,278.105L424.625,278.105L424.625,258.885L423.413,258.885C422.591,258.885 421.915,258.209 421.915,257.387C421.915,257.386 421.915,257.385 421.915,257.385L421.915,237.265C421.913,236.439 422.59,235.758 423.415,235.755L424.625,235.755L424.625,195.015C424.626,175.436 440.736,159.325 460.315,159.325L674.105,159.325C693.686,159.325 709.8,175.434 709.805,195.015L709.805,290.795L711.435,290.795C712.69,290.798 713.722,291.83 713.725,293.085Z" style="fill:rgb(63,61,86);fill-rule:nonzero;"/>
    </g>
    <path d="M419.802,20.849C419.802,19.446 418.663,18.307 417.26,18.307L382.521,18.307C381.118,18.307 379.979,19.446 379.979,20.849L379.979,23.851C379.979,25.254 381.118,26.393 382.521,26.393L417.26,26.393C418.663,26.393 419.802,25.254 419.802,23.851L419.802,20.849Z" style="fill:rgb(230,232,236);"/>
    <circle cx="430.41" cy="22.35" r="4.587" style="fill:rgb(230,232,236);"/>
    <g transform="matrix(1,0,0,1,-160.25,-159.325)">
        <path d="M692.71,202.075L692.71,706.165C692.716,712.795 689.803,719.103 684.75,723.395C680.653,726.887 675.443,728.806 670.06,728.805L465.41,728.805C461.769,728.811 458.18,727.936 454.95,726.255C454.191,725.867 453.456,725.433 452.75,724.955C446.51,720.745 442.76,713.693 442.76,706.165L442.76,202.075C442.76,202.075 442.76,202.075 442.76,202.074C442.76,189.649 452.984,179.425 465.409,179.425L496.04,179.425L496.04,183.355C496.04,193.586 504.459,202.005 514.69,202.005L618.77,202.005C629.001,202.005 637.42,193.586 637.42,183.355L637.42,179.425L670.06,179.425C670.062,179.425 670.065,179.425 670.067,179.425C682.489,179.425 692.71,189.646 692.71,202.068C692.71,202.07 692.71,202.073 692.71,202.075Z" style="fill:rgb(206,164,0);fill-rule:nonzero;"/>
    </g>
    <g transform="matrix(1,0,0,1,-160.25,-159.325)">
        <path d="M692.71,634.005L692.71,706.165C692.716,712.795 689.803,719.103 684.75,723.395C680.653,726.887 675.443,728.806 670.06,728.805L465.41,728.805C461.769,728.811 458.18,727.936 454.95,726.255C454.191,725.867 453.456,725.433 452.75,724.955C446.51,720.745 442.76,713.693 442.76,706.165L442.76,634.035C513.473,570.472 621.982,570.459 692.71,634.005Z" style="fill:white;fill-opacity:0.3;fill-rule:nonzero;"/>
    </g>
    <g transform="matrix(1,0,0,1,-160.25,-159.325)">
        <path d="M680.54,726.235C677.308,727.933 673.71,728.815 670.06,728.805L465.41,728.805C461.769,728.811 458.18,727.936 454.95,726.255C473.859,680.779 518.499,650.995 567.749,650.995C616.992,650.995 661.626,680.77 680.54,726.235Z" style="fill:white;fill-opacity:0.3;fill-rule:nonzero;"/>
    </g>
    <g transform="matrix(1,0,0,1,-160.25,-159.325)">
        <path d="M636,727.445C634.044,728.472 631.867,729.006 629.658,729L505.82,729C503.616,729.003 501.445,728.474 499.49,727.457C510.932,699.938 537.945,681.915 567.748,681.915C597.546,681.915 624.555,699.932 636,727.445Z" style="fill:white;fill-opacity:0.3;fill-rule:nonzero;"/>
    </g>
    <g transform="matrix(1,0,0,1,-160.25,-159.325)">
        <path d="M619.796,374.575C599.267,374.575 576.738,370.666 559.15,357.475C534.663,339.11 504.493,340.09 483.497,344.147C469.55,346.864 456.013,351.373 443.222,357.562L442.297,355.789C455.244,349.52 468.947,344.95 483.065,342.193C504.474,338.05 535.262,337.06 560.35,355.875C607.35,391.125 691.508,359.466 692.352,359.143L693.068,361.01C677.287,366.635 660.964,370.609 644.362,372.867C636.22,373.978 628.013,374.549 619.796,374.575Z" style="fill:white;fill-rule:nonzero;"/>
    </g>
    <g transform="matrix(1,0,0,1,-160.25,-159.325)">
        <path d="M442.75,356.675C442.75,356.675 511.75,339.963 559.75,362.845C607.75,385.727 692.75,362.675 692.75,362.675" style="fill:white;fill-opacity:0.3;fill-rule:nonzero;"/>
    </g>
    <g transform="matrix(1,0,0,1,-160.25,-159.325)">
        <path d="M507.891,382.636C499.556,382.599 491.243,381.769 483.065,380.157C468.947,377.401 455.244,372.831 442.297,366.562L443.222,364.789C456.013,370.977 469.55,375.486 483.497,378.204C504.492,382.26 534.662,383.241 559.15,364.875C584.216,346.076 619.327,346.128 644.362,349.483C660.964,351.741 677.287,355.715 693.068,361.34L692.352,363.207C691.507,362.884 607.351,331.224 560.35,366.475C543.898,378.814 524.993,382.636 507.891,382.636Z" style="fill:white;fill-opacity:0.3;fill-rule:nonzero;"/>
    </g>
    <g transform="matrix(1,0,0,1,-160.25,-159.325)">
        <path d="M508.231,374.584C473.597,374.584 442.84,362.158 442.379,361.968L443.141,360.119C443.825,360.401 512.229,388.018 559.241,360.183C607.066,331.863 692.147,357.142 693,357.401L692.42,359.315C691.575,359.059 607.327,334.034 560.259,361.904C544.197,371.415 525.719,374.584 508.231,374.584Z" style="fill:white;fill-opacity:0.3;fill-rule:nonzero;"/>
    </g>
    <g transform="matrix(1,0,0,1,-160.25,-159.325)">
        <path d="M442.76,359.505C442.76,359.505 511.75,382.388 559.75,359.505C607.75,336.623 692.71,357.343 692.71,357.343" style="fill:white;fill-opacity:0.3;fill-rule:nonzero;"/>
    </g>
    <g transform="matrix(1,0,0,1,-160.25,-159.325)">
        <path d="M710.519,420.725L710.519,449.877C710.519,449.877 712.851,482.529 725.679,498.854C725.679,498.854 746.669,528.59 749.584,522.176L745.993,501.061L733.841,489.525L727.428,453.376L725.679,420.725L710.519,420.725Z" style="fill:rgb(255,184,184);fill-rule:nonzero;"/>
    </g>
    <path d="M679.124,524.941L679.124,546.514L661.633,552.928L661.633,527.856L679.124,524.941Z" style="fill:rgb(255,184,184);fill-rule:nonzero;"/>
    <path d="M643.558,522.609L655.219,548.846L638.894,555.843L635.395,530.189L643.558,522.609Z" style="fill:rgb(255,184,184);fill-rule:nonzero;"/>
    <g transform="matrix(1,0,0,1,-160.25,-159.325)">
        <path d="M832.961,480.779C832.961,480.779 856.283,691.263 847.537,691.846C838.791,692.429 821.883,703.507 821.883,695.927C821.883,688.347 808.473,589.811 808.473,589.811L795.645,539.085L795.645,609.052L809.056,688.347C809.056,688.347 796.228,705.256 786.899,695.344L767.076,617.798C767.076,617.798 740.838,500.02 742.004,490.691C742.004,490.691 802.059,439.382 832.961,480.779Z" style="fill:rgb(47,46,65);fill-rule:nonzero;"/>
    </g>
    <g transform="matrix(1,0,0,1,-160.25,-159.325)">
        <path d="M828.296,707.005C828.296,707.005 832.961,697.093 843.456,703.507L852.202,714.002C852.202,714.002 874.75,732.675 858.75,736.675C842.259,740.798 832.378,736.412 832.378,736.412C832.378,736.412 829.463,734.663 827.13,734.663C824.798,734.663 819.551,730.581 819.551,729.415C819.551,728.249 821.3,707.588 821.3,707.588C822.649,706.931 824.27,707.163 825.381,708.171C827.13,709.92 828.296,707.005 828.296,707.005Z" style="fill:rgb(47,46,65);fill-rule:nonzero;"/>
    </g>
    <g transform="matrix(1,0,0,1,-160.25,-159.325)">
        <path d="M793.896,703.507C793.896,703.507 804.974,694.761 810.222,704.673C810.222,704.673 813.526,705.839 813.914,704.673C814.303,703.507 817.218,702.924 817.218,709.337C817.218,715.751 820.384,731.748 817.469,732.331C814.554,732.914 811.639,734.663 812.222,736.995C812.805,739.327 809.056,739.656 795.645,739.073C782.235,738.49 781.652,733.243 781.652,733.243C781.652,733.243 781.652,725.663 785.15,721.581C788.649,717.5 793.896,703.507 793.896,703.507Z" style="fill:rgb(47,46,65);fill-rule:nonzero;"/>
    </g>
    <g transform="matrix(1,0,0,1,-160.25,-159.325)">
        <path d="M772.323,321.605C772.323,321.605 769.408,343.178 788.066,350.758C806.723,358.338 746.669,383.409 740.838,368.833C735.008,354.256 742.004,349.592 742.004,349.592C742.004,349.592 747.835,343.761 742.587,328.019L772.323,321.605Z" style="fill:rgb(255,184,184);fill-rule:nonzero;"/>
    </g>
    <circle cx="593.415" cy="151.785" r="25.654" style="fill:rgb(255,184,184);"/>
    <g transform="matrix(1,0,0,1,-160.25,-159.325)">
        <path d="M783.401,357.755C783.401,357.755 765.909,367.084 749.001,360.087C732.092,353.09 732.675,383.409 732.675,383.409L741.421,406.148L802.059,400.318L797.978,365.334L783.401,357.755Z" style="fill:rgb(242,242,242);fill-rule:nonzero;"/>
    </g>
    <g transform="matrix(1,0,0,1,-160.25,-159.325)">
        <path d="M774.711,337.804C780.998,339.138 786.347,343.266 789.232,349.009L817.218,357.755L824.215,367.667L816.052,439.382C816.052,439.382 831.212,453.959 831.212,462.122C831.212,470.284 849.869,498.271 840.541,494.773C831.212,491.274 814.303,479.03 814.303,479.03C814.303,479.03 771.74,480.779 758.33,492.441C744.919,504.102 739.672,500.603 739.672,500.603C739.672,500.603 725.679,439.966 725.096,430.637C724.513,421.308 708.187,365.334 708.187,365.334L737.34,349.009L744.765,340.584L765.326,373.497L783.984,350.758C783.984,350.758 774.766,343.508 774.711,337.804Z" style="fill:rgb(63,61,86);fill-rule:nonzero;"/>
    </g>
    <g transform="matrix(1,0,0,1,-160.25,-159.325)">
        <path d="M832.961,412.562L836.459,431.22C836.459,431.22 852.202,489.525 849.869,509.349C849.869,509.349 851.619,553.661 841.707,548.414C831.795,543.166 837.042,511.098 837.042,511.098L823.049,453.376L815.469,419.559L832.961,412.562Z" style="fill:rgb(255,184,184);fill-rule:nonzero;"/>
    </g>
    <g transform="matrix(1,0,0,1,-160.25,-159.325)">
        <path d="M818.384,364.168L824.215,367.667C824.215,367.667 846.371,413.728 841.124,417.226C835.876,420.725 813.137,428.304 813.137,428.304L818.384,364.168Z" style="fill:rgb(63,61,86);fill-rule:nonzero;"/>
    </g>
    <path d="M561.93,206.01L548.228,205.718L545.022,211.257L549.103,267.814L570.093,272.478L561.93,206.01Z" style="fill:rgb(63,61,86);fill-rule:nonzero;"/>
    <g id="_-" serif:id=" " transform="matrix(1,0,0,1,-160.25,-159.325)">
        <path d="M774.556,289.413L779.18,287.732C779.18,287.732 769.512,278.063 756.06,278.904L759.843,275.121C759.843,275.121 750.595,271.758 742.188,280.585C737.768,285.226 732.654,290.681 729.467,296.825L724.515,296.825L726.581,300.959L719.348,305.093L726.772,304.35C726.069,307.919 726.311,311.61 727.475,315.056L729.156,319.68C729.156,319.68 735.882,306.228 735.882,304.546L735.882,308.75C735.882,308.75 740.506,304.967 740.506,302.445L743.028,305.387L744.289,300.763L759.843,305.387L757.321,301.604L766.989,302.865L763.206,298.241C763.206,298.241 774.136,303.706 774.556,308.33C774.977,312.954 777.862,318.981 777.862,318.981L781.36,314.9C781.36,314.9 786.747,295.719 774.556,289.413Z" style="fill:rgb(255,184,39);fill-rule:nonzero;"/>
    </g>
    <ellipse cx="614.988" cy="152.077" rx="2.041" ry="5.248" style="fill:rgb(255,184,184);"/>
    <g transform="matrix(1,0,0,1,-160.25,-159.325)">
        <path d="M201.884,706.341C214.312,729.39 240.69,739.285 240.69,739.285C240.69,739.285 246.917,711.809 234.489,688.76C222.06,665.711 195.683,655.817 195.683,655.817C195.683,655.817 189.456,683.292 201.884,706.341Z" style="fill:rgb(206,133,0);fill-rule:nonzero;"/>
    </g>
    <g transform="matrix(1,0,0,1,-160.25,-159.325)">
        <path d="M210.427,698.758C232.865,712.258 241.507,739.072 241.507,739.072C241.507,739.072 213.769,743.999 191.33,730.499C168.892,716.999 160.25,690.185 160.25,690.185C160.25,690.185 187.988,685.258 210.427,698.758Z" style="fill:rgb(206,200,0);fill-rule:nonzero;"/>
    </g>
    <g transform="matrix(1,0,0,1,-160.25,-159.325)">
        <path d="M442.76,356.675C442.76,356.675 511.75,320.675 559.75,356.675C607.75,392.675 692.71,360.077 692.71,360.077" style="fill:white;fill-opacity:0.3;fill-rule:nonzero;"/>
    </g>
    <circle cx="407.75" cy="552.675" r="11" style="fill:white;"/>
</svg>
